<?xml version="1.0" standalone="no"?><svg xmlns="http://www.w3.org/2000/svg" viewBox="0 0 1440 320"><path fill="#5ae4a8" fill-opacity="1" d="M0,224L40,202.7C80,181,160,139,240,133.3C320,128,400,160,480,144C560,128,640,64,720,48C800,32,880,64,960,101.3C1040,139,1120,181,1200,170.7C1280,160,1360,96,1400,64L1440,32L1440,320L1400,320C1360,320,1280,320,1200,320C1120,320,1040,320,960,320C880,320,800,320,720,320C640,320,560,320,480,320C400,320,320,320,240,320C160,320,80,320,40,320L0,320Z"></path></svg>